<svg width="567" height="568" viewBox="0 0 567 568" fill="none" xmlns="http://www.w3.org/2000/svg">
<path opacity="0.15" fill-rule="evenodd" clip-rule="evenodd" d="M283.746 10.4487C433.455 10.4487 554.819 131.813 554.819 281.522C554.819 431.231 433.455 552.595 283.746 552.595C134.035 552.595 12.6719 431.231 12.6719 281.522C12.6719 131.813 134.035 10.4487 283.746 10.4487Z" fill="#00AF74"/>
<path d="M224.289 161.861C224.289 123.93 236.855 104.615 262.343 104.615C287.663 104.615 300.399 123.947 300.399 161.861" stroke="#FFD497" stroke-width="16" stroke-miterlimit="10" stroke-linecap="round" stroke-linejoin="round"/>
<path d="M158.018 142.959H400.309L414.506 428.37H215.066L158.018 142.959Z" fill="#00AF74"/>
<path d="M200.771 142.959L215.066 428.37L158.015 419.398L100.963 428.37L115.249 142.959H200.771Z" fill="#0A5238"/>
<path d="M338.73 166.794C338.362 204.723 325.609 223.917 300.122 223.67C274.803 223.425 262.255 203.969 262.622 166.058" stroke="white" stroke-width="16" stroke-miterlimit="10" stroke-linecap="round" stroke-linejoin="round"/>
<path fill-rule="evenodd" clip-rule="evenodd" d="M428.357 310.631C464.951 310.631 494.617 340.297 494.617 376.891C494.617 413.486 464.951 443.151 428.357 443.151C391.762 443.151 362.097 413.486 362.097 376.891C362.097 340.297 391.762 310.631 428.357 310.631Z" fill="#FF3A3A"/>
<path d="M395.958 371.989L420.637 396.729L460.755 357.053" stroke="white" stroke-width="16" stroke-miterlimit="10" stroke-linecap="round" stroke-linejoin="round"/>
</svg>
