<svg width="567" height="568" viewBox="0 0 567 568" fill="none" xmlns="http://www.w3.org/2000/svg">
<path opacity="0.15" fill-rule="evenodd" clip-rule="evenodd" d="M283.746 10.4487C433.455 10.4487 554.819 131.813 554.819 281.522C554.819 431.231 433.455 552.595 283.746 552.595C134.035 552.595 12.6719 431.231 12.6719 281.522C12.6719 131.813 134.035 10.4487 283.746 10.4487Z" fill="#00AF74"/>
<path d="M148.511 428.345C148.511 428.345 172.953 428.499 185.143 416.218C197.198 404.075 196.803 379.995 196.803 379.995L196.801 138.211L414.506 138.197L414.369 380.055C414.369 380.055 414.349 404.215 402.322 416.309C390.225 428.474 366.119 428.37 366.119 428.37L148.511 428.345Z" fill="#00AF74"/>
<path d="M99.278 355.853V380.047C99.2779 392.343 98.6075 404.221 110.894 416.349C123.11 428.406 147.701 428.345 147.701 428.345L365.266 428.37C365.266 428.37 340.919 428.406 328.766 416.295C316.891 404.462 316.827 392.019 316.891 379.935L316.791 355.783L99.278 355.853Z" fill="#0A5238"/>
<path fill-rule="evenodd" clip-rule="evenodd" d="M231.967 226.575H263.762V240.213H231.967V226.575Z" fill="#F6C604"/>
<path fill-rule="evenodd" clip-rule="evenodd" d="M286.201 226.575H378.569V240.213H286.201V226.575Z" fill="white"/>
<path fill-rule="evenodd" clip-rule="evenodd" d="M231.967 181.706H263.762V195.343H231.967V181.706Z" fill="#F6C604"/>
<path fill-rule="evenodd" clip-rule="evenodd" d="M286.201 181.706H378.569V195.343H286.201V181.706Z" fill="white"/>
<path fill-rule="evenodd" clip-rule="evenodd" d="M231.967 316.277H263.762V329.914H231.967V316.277Z" fill="#F6C604"/>
<path fill-rule="evenodd" clip-rule="evenodd" d="M286.201 316.277H378.569V329.914H286.201V316.277Z" fill="white"/>
<path fill-rule="evenodd" clip-rule="evenodd" d="M231.967 271.409H263.762V285.045H231.967V271.409Z" fill="#F6C604"/>
<path fill-rule="evenodd" clip-rule="evenodd" d="M286.201 271.409H378.569V285.045H286.201V271.409Z" fill="white"/>
<path fill-rule="evenodd" clip-rule="evenodd" d="M428.357 160.315C464.951 160.315 494.617 189.981 494.617 226.575C494.617 263.17 464.951 292.835 428.357 292.835C391.762 292.835 362.097 263.17 362.097 226.575C362.097 189.981 391.762 160.315 428.357 160.315Z" fill="#FF3A3A"/>
<path fill-rule="evenodd" clip-rule="evenodd" d="M441.201 189.144V246.048H415.514V189.144H441.201Z" fill="white"/>
<path d="M399.409 231.521L428.357 264.81L457.306 231.521H399.409Z" fill="white"/>
</svg>
