<svg width="23" height="24" viewBox="0 0 23 24" fill="none" xmlns="http://www.w3.org/2000/svg">
<path d="M11.3656 23.4585C17.6427 23.4585 22.7312 18.3284 22.7312 12C22.7312 5.67166 17.6427 0.541504 11.3656 0.541504C5.08855 0.541504 0 5.67166 0 12C0 18.3284 5.08855 23.4585 11.3656 23.4585Z" fill="#0AA873"/>
<path d="M10.1778 16.4467C9.83856 16.4467 9.54168 16.3184 9.28723 16.0619L5.68246 12.4276C5.17355 11.9146 5.17355 11.1022 5.68246 10.6319C6.19137 10.1188 6.99715 10.1188 7.46365 10.6319L10.1778 13.3683L15.2669 8.23758C15.7758 7.72452 16.5816 7.72452 17.0481 8.23758C17.557 8.75065 17.557 9.56301 17.0481 10.0333L11.0684 16.0619C10.814 16.3184 10.4747 16.4467 10.1778 16.4467Z" fill="white"/>
</svg>
